<svg width="20" height="19" viewBox="0 0 20 19" fill="none" xmlns="http://www.w3.org/2000/svg">
<g clip-path="url(#clip0_3_46)">
<path d="M8.95471 0.857425L6.29518 1.90462C6.00206 2.02003 5.89293 2.39593 6.07489 2.6634L9.3993 7.5503C9.68544 7.97099 10.3173 7.71471 10.2597 7.20126L9.59487 1.26717C9.55868 0.944791 9.24417 0.74345 8.95471 0.857425Z" fill="#FFAD2C"/>
<path d="M0.362029 7.82679L2.57869 4.11304C2.73883 3.84474 3.09315 3.79832 3.31117 4.01709L8.69448 9.4189C9.04113 9.76675 8.73605 10.3737 8.26692 10.2695L0.666972 8.58149C0.343154 8.50956 0.18626 8.12127 0.362029 7.82679Z" fill="#FFAD2C"/>
<mask id="mask0_3_46" style="mask-type:luminance" maskUnits="userSpaceOnUse" x="4" y="2" width="16" height="17">
<path d="M19.5238 2.63333H4.28571V18.6333H19.5238V2.63333Z" fill="white"/>
</mask>
<g mask="url(#mask0_3_46)">
<path d="M18.2539 2.63333H12.976C12.6269 2.63333 12.1389 2.84571 11.8922 3.10454L4.65627 10.7022C4.16218 11.2204 4.16218 12.07 4.65627 12.5876L10.044 18.2446C10.5369 18.7628 11.3453 18.7628 11.839 18.244L19.075 10.6474C19.3215 10.3887 19.5238 9.87546 19.5238 9.50965V3.96672C19.5238 3.23352 18.9522 2.63333 18.2539 2.63333ZM15.7141 7.96669C15.0128 7.96669 14.4442 7.36908 14.4442 6.6333C14.4442 5.89631 15.0128 5.29991 15.7141 5.29991C16.4154 5.29991 16.9842 5.89631 16.9842 6.6333C16.9842 7.36908 16.4154 7.96669 15.7141 7.96669Z" fill="white"/>
<path d="M13.5389 14.3882C13.5263 14.4885 13.515 14.5792 13.5034 14.6699C13.4738 14.8993 13.4443 15.1288 13.4147 15.3583C13.3934 15.5241 13.3736 15.6902 13.3507 15.8558C13.3486 15.8703 13.3287 15.8865 13.3135 15.8936C13.2765 15.9109 13.2354 15.9196 13.1993 15.9386C13.0834 15.9993 13.0502 16.1303 13.1189 16.2466C13.1852 16.3592 13.2838 16.4052 13.385 16.3707C13.5349 16.3197 13.5856 16.1282 13.4845 15.9953C13.4559 15.9576 13.4266 15.9202 13.3899 15.8734L13.911 14.4788C13.9443 14.5684 13.9739 14.6464 14.0025 14.7249C14.122 15.0536 14.247 15.3805 14.3589 15.7118C14.4595 16.0129 14.5204 16.3269 14.5397 16.6451C14.5646 17.0386 14.4411 17.3746 14.1864 17.6642C13.9615 17.9198 13.55 18.2777 13.2601 18.4558C13.2073 18.3388 13.1551 18.2221 13.1023 18.1057C13.0495 17.9893 12.9955 17.8713 12.9391 17.7476L12.6402 17.979L12.3333 18.2164C12.284 18.1315 12.2345 18.0515 12.1897 17.9686C12.0401 17.6897 11.9116 17.4029 11.8423 17.0889C11.7705 16.7619 11.8125 16.4533 11.9591 16.1576C12.1394 15.7942 12.3888 15.4858 12.6598 15.195C12.9211 14.9146 13.2049 14.6603 13.4986 14.4178C13.5091 14.4096 13.5201 14.4021 13.5389 14.3882Z" fill="#FFAD2C"/>
<path d="M9.58533 14.8812L10.1129 14.3304L9.48288 13.8893C9.58799 13.7619 9.68799 13.633 9.79533 13.5121C9.99142 13.2921 10.2034 13.0906 10.4632 12.9543C10.6675 12.845 10.8976 12.7996 11.1259 12.8236C11.5222 12.8632 11.8902 13.0018 12.2504 13.1691C12.6167 13.3392 12.9638 13.546 13.3032 13.7679C13.3117 13.7743 13.3198 13.7812 13.3276 13.7886L11.924 14.1022C11.89 14.0593 11.8593 14.0146 11.8222 13.9765C11.7396 13.8919 11.6332 13.8918 11.5469 13.9716C11.4466 14.0643 11.4263 14.211 11.5004 14.3062C11.5215 14.3336 11.5484 14.3557 11.5789 14.3707C11.6094 14.3857 11.6429 14.3932 11.6766 14.3927C11.7103 14.3922 11.7434 14.3837 11.7735 14.3678C11.8036 14.3519 11.8299 14.329 11.8503 14.3009C11.8658 14.2795 11.8837 14.257 11.8889 14.2324C11.9064 14.1493 11.9544 14.1408 12.0278 14.1434C12.4709 14.1597 12.9143 14.1695 13.3576 14.1816C13.3576 14.1816 13.3598 14.1837 13.3662 14.1898C13.3182 14.2339 13.2712 14.2778 13.2234 14.321C12.9792 14.5411 12.7392 14.7669 12.4893 14.9796C12.1937 15.2313 11.8752 15.4456 11.5111 15.5782C11.2013 15.6912 10.9026 15.6533 10.6062 15.5246C10.2414 15.3667 9.91456 15.143 9.5999 14.8978C9.59456 14.8928 9.58971 14.8872 9.58533 14.8812Z" fill="#FFAD2C"/>
<path d="M11.7158 10.0252L12.3818 10.3876L12.5926 9.63333C12.9468 9.76903 13.281 9.93241 13.5785 10.1709C13.7695 10.3241 13.9147 10.5133 14.0036 10.7477C14.0608 10.9024 14.0942 11.0656 14.1024 11.2313C14.1126 11.4107 14.1217 11.5917 14.1114 11.7707C14.0974 12.0158 14.0764 12.2616 14.0369 12.5033C13.9887 12.7989 13.9186 13.0905 13.8577 13.3839C13.8547 13.3977 13.85 13.411 13.8431 13.4346L13.1316 12.1236C13.1512 12.0961 13.1727 12.0683 13.1916 12.0394C13.3147 11.8552 13.1989 11.6916 13.0187 11.6722C12.8708 11.6563 12.7999 11.7627 12.784 11.8589C12.7626 11.9871 12.8558 12.1209 12.984 12.1264C13.0877 12.1309 13.1141 12.1818 13.1378 12.2737C13.2486 12.7003 13.367 13.1249 13.4826 13.5502C13.4856 13.5617 13.487 13.5736 13.491 13.5952C13.3924 13.5319 13.3009 13.4744 13.2106 13.4149C12.931 13.231 12.6465 13.054 12.3741 12.8596C12.1016 12.6652 11.8579 12.4379 11.6627 12.1576C11.5165 11.9473 11.4385 11.7145 11.4361 11.4513C11.4326 11.0578 11.5182 10.682 11.6264 10.3097C11.6534 10.2163 11.6846 10.1243 11.7158 10.0252Z" fill="#FFAD2C"/>
<path d="M14.0104 13.5067C14.0461 13.359 14.0777 13.2266 14.1099 13.0945C14.1779 12.8156 14.2395 12.5348 14.3162 12.2586C14.407 11.9315 14.5349 11.6204 14.711 11.3308C14.9048 11.0137 15.1792 10.8289 15.5266 10.7474C15.8836 10.6636 16.2446 10.6455 16.6088 10.6514C16.6461 10.6521 16.6835 10.6514 16.7291 10.6514C16.686 10.9109 16.644 11.164 16.6017 11.4182H17.3505C17.3465 11.4933 17.3487 11.5734 17.337 11.6513C17.3031 11.8797 17.2727 12.1092 17.2237 12.3342C17.1753 12.5571 17.0904 12.7669 16.9528 12.9498C16.8052 13.1459 16.6125 13.2761 16.398 13.376C16.0427 13.5414 15.6697 13.6412 15.2858 13.6961C14.9824 13.739 14.6769 13.767 14.3723 13.8006C14.3405 13.804 14.308 13.8006 14.267 13.8006C14.3359 13.7225 14.4004 13.6485 14.466 13.5748C14.7144 13.2947 14.9626 13.0144 15.2104 12.7339C15.2363 12.7044 15.2544 12.6968 15.2914 12.7145C15.3305 12.7319 15.3722 12.7417 15.4146 12.7435C15.5225 12.75 15.5926 12.7006 15.6186 12.5909C15.6573 12.4271 15.5824 12.2677 15.4054 12.2703C15.285 12.272 15.1797 12.3985 15.1913 12.5272C15.1933 12.5487 15.1913 12.5723 15.2004 12.5903C15.2311 12.6547 15.2028 12.6851 15.1523 12.7196C14.7842 12.9707 14.4182 13.2248 14.0514 13.478C14.0425 13.4857 14.0327 13.492 14.0104 13.5067Z" fill="#FFAD2C"/>
<path d="M14.0811 14.3402L15.3814 14.9725C15.387 15.0416 15.3864 15.1026 15.3975 15.1612C15.4151 15.2527 15.4824 15.3072 15.5719 15.3133C15.7033 15.3221 15.8145 15.2422 15.8369 15.1231C15.8693 14.9497 15.7007 14.8219 15.5759 14.8577C15.5288 14.8714 15.4838 14.8924 15.4426 14.9199C15.413 14.9401 15.3961 14.9356 15.3723 14.9155C15.0919 14.68 14.8111 14.4447 14.5297 14.2097C14.4477 14.1412 14.3656 14.073 14.2746 13.9968C14.3947 13.9878 14.5025 13.9794 14.6104 13.9716C14.8433 13.9548 15.0761 13.93 15.3093 13.9238C15.5378 13.9163 15.7665 13.9212 15.9944 13.9384C16.1593 13.9518 16.324 13.9889 16.4852 14.0306C16.8265 14.1188 17.0719 14.3402 17.2488 14.6537C17.442 14.996 17.5751 15.3637 17.6819 15.7434C17.6891 15.7685 17.6961 15.7937 17.7043 15.8231L16.9629 15.9331C17.0458 16.1817 17.1271 16.4254 17.2112 16.6778C17.0821 16.7092 16.9572 16.7427 16.8317 16.7693C16.5928 16.8209 16.3489 16.8429 16.105 16.835C15.7731 16.8233 15.487 16.7018 15.2475 16.4616C14.9629 16.1753 14.7525 15.8325 14.5646 15.4731C14.3814 15.123 14.232 14.7568 14.0938 14.3852C14.0899 14.3739 14.0875 14.3632 14.0811 14.3402Z" fill="#FFAD2C"/>
</g>
</g>
<defs>
<clipPath id="clip0_3_46">
<rect width="20" height="18" fill="white" transform="translate(0 0.633331)"/>
</clipPath>
</defs>
</svg>
